# xmcd
#
# Track frame offsets:
# 151
# 11566
# 20887
# 34196
# 46161
# 55894
# 63809
# 72538
# 82791
# 92350
# 99123
# 112780
# 123887
# 136072
# 144809
# 154986
# 163065
#
# Disc length: 2335 seconds
#
#
# Revision: 2
# Processed by: cddbd v1.5.1PL2 Copyright (c) Steve Scherf et al.
# Submitted via: FreeRIP 2.945 
#
DISCID=ca091d11
DTITLE=Willie Nelson - Is There Something On Your Mind
DYEAR=2002
DGENRE=Country
TTITLE0=Is There Something On Your Mind
TTITLE1=Building Heartaches
TTITLE2=Everything But You
TTITLE3=Happiness Lives Next Door
TTITLE4=I Didn't Sleeep A Wink
TTITLE5=Things To Remember
TTITLE6=Why Are You Picking On Me
TTITLE7=Blame It On The times
TTITLE8=Lets Pretend
TTITLE9=Both Ends Of The Candle
TTITLE10=Home Is Where Your Happy
TTITLE11=I'm Going To LooseA Lot Of Teardrops
TTITLE12=Shelter Of My Arms
TTITLE13=The Ghost
TTITLE14=Broken Promises
TTITLE15=Half A Man
TTITLE16=I Can't Find The Time
EXTD=Time Music
EXTT0=
EXTT1=
EXTT2=
EXTT3=
EXTT4=
EXTT5=
EXTT6=
EXTT7=
EXTT8=
EXTT9=
EXTT10=
EXTT11=
EXTT12=
EXTT13=
EXTT14=
EXTT15=
EXTT16=
PLAYORDER=
